HIERARCHY
ROOT Hips
{
	OFFSET	0.00	0.00	0.00
	CHANNELS 6 Xposition Yposition Zposition Zrotation Xrotation Yrotation
	JOINT LeftUpLeg
	{
		OFFSET	 0.126116	-0.065224	 0.014019
		CHANNELS 3 Zrotation Xrotation Yrotation
		JOINT LeftLeg
		{
			OFFSET	 0.000000	 0.569914	 0.000000
			CHANNELS 3 Zrotation Xrotation Yrotation
			JOINT LeftFoot
			{
				OFFSET	 0.000000	 0.544423	 0.000000
				CHANNELS 3 Zrotation Xrotation Yrotation
				JOINT LeftToeBase
				{
					OFFSET	 0.000000	 0.207117	 0.000000
					CHANNELS 3 Zrotation Xrotation Yrotation
					End Site
					{
						OFFSET	 0.000000	 0.207117	 0.000000
					}
				}
			}
		}
	}
	JOINT RightUpLeg
	{
		OFFSET	-0.124023	-0.065224	 0.008373
		CHANNELS 3 Zrotation Xrotation Yrotation
		JOINT RightLeg
		{
			OFFSET	 0.000000	 0.570047	 0.000000
			CHANNELS 3 Zrotation Xrotation Yrotation
			JOINT RightFoot
			{
				OFFSET	 0.000000	 0.544354	 0.000000
				CHANNELS 3 Zrotation Xrotation Yrotation
				JOINT RightToeBase
				{
					OFFSET	 0.000000	 0.207540	 0.000000
					CHANNELS 3 Zrotation Xrotation Yrotation
					End Site
					{
						OFFSET	 0.000000	 0.207540	 0.000000
					}
				}
			}
		}
	}
	JOINT Spine
	{
		OFFSET	 0.000184	 0.117403	 0.007763
		CHANNELS 3 Zrotation Xrotation Yrotation
		JOINT Spine1
		{
			OFFSET	 0.000000	 0.137269	 0.000000
			CHANNELS 3 Zrotation Xrotation Yrotation
			JOINT Spine2
			{
				OFFSET	 0.000000	 0.156879	 0.000000
				CHANNELS 3 Zrotation Xrotation Yrotation
				JOINT LeftShoulder
				{
					OFFSET	 0.080501	 0.160143	 0.002496
					CHANNELS 3 Zrotation Xrotation Yrotation
					JOINT LeftArm
					{
						OFFSET	 0.000000	 0.164363	 0.000000
						CHANNELS 3 Zrotation Xrotation Yrotation
						JOINT LeftForeArm
						{
							OFFSET	 0.000000	 0.364576	 0.000000
							CHANNELS 3 Zrotation Xrotation Yrotation
							JOINT LeftHand
							{
								OFFSET	 0.000000	 0.360812	 0.000000
								CHANNELS 3 Zrotation Xrotation Yrotation
								JOINT LeftHandIndex1
								{
									OFFSET	 0.000000	 0.086006	 0.000000
									CHANNELS 3 Zrotation Xrotation Yrotation
									JOINT LeftHandIndex2
									{
										OFFSET	 0.000000	 0.047237	 0.000000
										CHANNELS 3 Zrotation Xrotation Yrotation
										JOINT LeftHandIndex3
										{
											OFFSET	-0.004284	 0.038165	 0.000551
											CHANNELS 3 Zrotation Xrotation Yrotation
											End Site
											{
												OFFSET	-0.004284	 0.038165	 0.000551
											}
										}
									}
								}
							}
						}
					}
				}
				JOINT Neck
				{
					OFFSET	 0.000000	 0.176489	 0.000000
					CHANNELS 3 Zrotation Xrotation Yrotation
					JOINT Head
					{
						OFFSET	 0.000000	 0.077941	 0.001747
						CHANNELS 3 Zrotation Xrotation Yrotation
						End Site
						{
							OFFSET	 0.000000	 0.077941	 0.001747
						}
					}
				}
				JOINT RightShoulder
				{
					OFFSET	-0.080363	 0.159706	-0.000306
					CHANNELS 3 Zrotation Xrotation Yrotation
					JOINT RightArm
					{
						OFFSET	 0.000000	 0.164196	 0.000000
						CHANNELS 3 Zrotation Xrotation Yrotation
						JOINT RightForeArm
						{
							OFFSET	 0.000000	 0.365611	 0.000000
							CHANNELS 3 Zrotation Xrotation Yrotation
							JOINT RightHand
							{
								OFFSET	 0.000000	 0.360648	 0.000000
								CHANNELS 3 Zrotation Xrotation Yrotation
								JOINT RightHandIndex1
								{
									OFFSET	 0.000000	 0.069977	 0.000000
									CHANNELS 3 Zrotation Xrotation Yrotation
									JOINT RightHandIndex2
									{
										OFFSET	 0.000000	 0.052305	 0.000000
										CHANNELS 3 Zrotation Xrotation Yrotation
										JOINT RightHandIndex3
										{
											OFFSET	 0.009002	 0.042196	 0.000782
											CHANNELS 3 Zrotation Xrotation Yrotation
											End Site
											{
												OFFSET	 0.009002	 0.042196	 0.000782
											}
										}
									}
								}
							}
						}
					}
				}
			}
		}
	}
}
MOTION
Frames:    7
Frame Time: 0.03333334
-0.095877	 1.236869	-0.064233	 10.927300	-6.164351	-159.739500	 175.481300	 33.723850	 30.921460	 13.197330	-40.614850	 15.053080	 16.613250	 82.861530	-24.246570	 1.171133	 26.812400	-2.663277	-172.772700	 10.169040	 13.629720	-2.064838	-25.434160	 7.892353	-2.209131	 68.716420	 1.510126	-2.296512	 40.042410	 3.234233	-6.261907	 6.073338	 23.268960	-8.236554	 11.112640	 8.788242	 4.624634	-10.199260	-9.176373	-102.813700	 2.810671	 93.159690	 41.969930	 45.925600	-0.537493	 23.955760	-1.203637	 0.171497	 11.119290	 13.142040	 45.247860	 3.859123	 55.139900	-2.209972	-8.817880	 61.630550	 9.138485	 6.611521	 34.369940	 0.048932	 3.859871	-12.290450	-3.920971	 5.462535	-9.765993	-13.353300	 102.570500	 28.200890	-97.881460	-63.861170	 39.421150	 7.652519	-5.008749	-0.196845	 0.049987	 25.123710	-0.419761	-12.050270	-4.890759	 13.085020	-0.625609	 14.066000	 36.386060	-8.818731	-8.484950	 29.596820	-1.612963
-0.098434	 1.237075	-0.062473	 10.313270	-6.391412	-159.972200	 174.926700	 33.466030	 30.460350	 12.893680	-39.968380	 14.885640	 17.232460	 82.440030	-24.587400	 1.146382	 26.477200	-2.653483	-173.303200	 9.402245	 14.251740	-1.920912	-23.865930	 9.238509	-0.149401	 70.283000	-1.657229	-2.061114	 37.593810	 3.096189	-6.188316	 6.132637	 23.043160	-8.055360	 10.686000	 8.670115	 4.602125	-9.903541	-8.989246	-103.342300	 2.688269	 93.093630	 36.681660	 48.558520	 1.957569	 20.951300	-1.060007	 0.112123	 9.274021	 11.881880	 50.482050	 3.880898	 55.116090	-2.226072	-8.800797	 61.560190	 9.115561	 6.613807	 34.418600	 0.048684	 3.983752	-12.051990	-3.889809	 4.970238	-9.626577	-13.089890	 103.154200	 27.626540	-97.891130	-57.976800	 42.423520	 5.052753	-5.047456	-0.198350	 0.049796	 20.738650	-2.581314	-19.142890	-4.896175	 13.076550	-0.626003	 14.078190	 36.460820	-8.842026	-8.484542	 29.630750	-1.615372
-0.100307	 1.237405	-0.060331	 9.597565	-6.518538	-160.351400	 174.481700	 33.067850	 29.837940	 12.557750	-39.237760	 14.693100	 17.729910	 81.973980	-24.873990	 1.120952	 26.130890	-2.643564	-174.029000	 8.907885	 14.899100	-1.846690	-23.042010	 10.729130	 3.558216	 72.239150	-6.309941	-1.830694	 35.035760	 2.969671	-6.079501	 6.275139	 22.529480	-7.731274	 9.986263	 8.263731	 4.559171	-9.447948	-8.779484	-103.899800	 2.559247	 93.020890	 33.495040	 50.755230	 2.831218	 15.676450	-0.801053	 0.026418	 7.523536	 10.570260	 54.847790	 3.903321	 55.092840	-2.242676	-8.782420	 61.484060	 9.090861	 6.616316	 34.471980	 0.048409	 4.113194	-11.784680	-3.850930	 4.437577	-9.474030	-12.780990	 103.792800	 27.000100	-97.896730	-51.713510	 45.113210	 2.174137	-5.078969	-0.199640	 0.049686	 15.747990	-4.345163	-27.481010	-4.900582	 13.061470	-0.625938	 14.090410	 36.535370	-8.865297	-8.484157	 29.662700	-1.617642
-0.102857	 1.238168	-0.059024	 8.579816	-6.095908	-162.699200	 174.955100	 31.771570	 27.317270	 12.387730	-38.861740	 14.282260	 16.420870	 81.591270	-23.183460	 1.131241	 26.271250	-2.647559	-174.737300	 8.843614	 12.697430	-1.930720	-23.974190	 10.935000	 4.945735	 72.993550	-7.475709	-1.831851	 35.049010	 2.970285	-5.520902	 6.202635	 21.879240	-7.894485	 9.856785	 8.489976	 4.717295	-9.138217	-8.254581	-104.064700	 2.500840	 92.935440	 30.727310	 53.683440	 1.690251	 9.326972	-0.480527	-0.044675	 11.493660	 11.221400	 52.560810	 3.892540	 55.149730	-2.235830	-8.761252	 61.395730	 9.062349	 6.620381	 34.558310	 0.047952	 4.118747	-11.169230	-3.614902	 3.746479	-9.160095	-11.645180	 104.805100	 26.221360	-97.942630	-43.381940	 47.257520	 0.483053	-5.106441	-0.200584	 0.049608	 9.284804	-6.703488	-31.569360	-4.857530	 12.848170	-0.609511	 14.070240	 36.412040	-8.826829	-8.485604	 29.542380	-1.609093
-0.103424	 1.239424	-0.057072	 7.410381	-5.422281	-165.344200	 175.617100	 30.125120	 24.526760	 12.097920	-38.210830	 13.764920	 15.183240	 81.040150	-21.641900	 1.142303	 26.421800	-2.651880	-175.614400	 9.103601	 10.337390	-2.098967	-25.800100	 11.119450	 7.055231	 74.048460	-9.306793	-1.833093	 35.063220	 2.970945	-4.911453	 6.268172	 20.648240	-7.594033	 9.294088	 8.112137	 4.745420	-8.539231	-7.693565	-104.241700	 2.438450	 92.843590	 21.354480	 56.552880	 5.771165	 11.499000	-0.590991	-0.024348	 10.127830	 12.125470	 48.646160	 3.880947	 55.210750	-2.228455	-8.738715	 61.300960	 9.031933	 6.624747	 34.650920	 0.047452	 4.121825	-10.509040	-3.362329	 3.019314	-8.836173	-10.427190	 105.885700	 25.380050	-97.975830	-30.544680	 48.310710	-4.447948	-10.077360	-0.394503	 0.023791	 4.363185	-7.163598	-37.523130	-4.811320	 12.619390	-0.591723	 14.048750	 36.279740	-8.785692	-8.487130	 29.413310	-1.599938
-0.098143	 1.239556	-0.053576	 6.199398	-4.622213	-168.183700	 176.492600	 28.524270	 21.537140	 11.833600	-37.606230	 13.320120	 13.687400	 80.549710	-20.097810	 1.148947	 26.512050	-2.654488	-176.039100	 8.961866	 7.935598	-2.185139	-26.714120	 11.241170	 8.885500	 75.072440	-11.081460	-1.776713	 34.412860	 2.941355	-4.238533	 6.383619	 18.907910	-6.847269	 8.279676	 7.400056	 4.580274	-7.649354	-7.046047	-104.502600	 2.520727	 92.781080	 13.356880	 58.272900	 10.768520	 12.768800	-0.655266	-0.010550	 8.527021	 12.625280	 45.758530	 3.749332	 54.281290	-2.121424	-8.509631	 60.294340	 8.719024	 6.591671	 33.946080	 0.051022	 4.118454	-9.920789	-3.073981	 2.396220	-8.413363	-8.989735	 107.058100	 24.380980	-97.978900	-18.148550	 49.277840	-10.621280	-14.496350	-0.564268	-0.013195	 3.159993	-7.544343	-38.860440	-4.589952	 11.810000	-0.476405	 13.857120	 35.055230	-8.411215	-8.502740	 27.932560	-1.496009
-0.093414	 1.239465	-0.051476	 5.408515	-4.199101	-170.203200	 177.118200	 27.543700	 19.393320	 11.649770	-37.179500	 13.080100	 12.939800	 80.269280	-19.337790	 1.149009	 26.512920	-2.654512	-176.198500	 8.834394	 6.278893	-2.208196	-26.956270	 11.245340	 10.332300	 76.006340	-12.347770	-1.684887	 33.332480	 2.894387	-3.795604	 6.336784	 17.730360	-6.668058	 7.743876	 7.185317	 4.551593	-7.114504	-6.531706	-104.757200	 2.716396	 92.769220	 9.079974	 58.470720	 15.058970	 13.529870	-0.693601	-0.001609	 6.999516	 12.383760	 46.034330	 3.557009	 52.696790	-1.965567	-8.189026	 58.734750	 8.267864	 6.533955	 32.699710	 0.056082	 4.111206	-9.601373	-2.847708	 2.073634	-8.029784	-7.819849	 107.961900	 23.499530	-97.968480	-11.117220	 49.259610	-14.993210	-16.638230	-0.645420	-0.035834	 6.176082	-7.761427	-34.221740	-4.270388	 10.707050	-0.300329	 13.586890	 33.173610	-7.856293	-8.520700	 25.628270	-1.337827
